<?xml version="1.0" encoding="UTF-8" standalone="no"?>
<!DOCTYPE svg PUBLIC "-//W3C//DTD SVG 1.1//EN" "http://www.w3.org/Graphics/SVG/1.1/DTD/svg11.dtd">
<svg width="100%" height="100%" viewBox="0 0 1000 1000" version="1.1" xmlns="http://www.w3.org/2000/svg" xmlns:xlink="http://www.w3.org/1999/xlink" xml:space="preserve" xmlns:serif="http://www.serif.com/" style="fill-rule:evenodd;clip-rule:evenodd;stroke-linejoin:round;stroke-miterlimit:2;">
    <g transform="matrix(1,0,0,1,-182.811,-1.13687e-13)">
        <g transform="matrix(1,0,0,1,15.0996,0)">
            <path d="M726.231,645.669L576.546,645.669L576.546,303.742L709.599,303.742C732.753,303.742 752.727,306.514 769.522,312.058C786.317,317.602 798.79,325.103 806.943,334.56C822.596,352.17 830.423,372.063 830.423,394.238C830.423,420.979 821.944,440.872 804.986,453.916C798.79,458.482 794.551,461.335 792.268,462.477C789.985,463.618 785.909,465.493 780.039,468.102C801.236,472.668 818.112,482.206 830.668,496.718C843.223,511.23 849.5,529.248 849.5,550.771C849.5,574.577 841.348,595.611 825.042,613.874C805.802,635.071 772.865,645.669 726.231,645.669ZM634.268,445.6L707.642,445.6C749.385,445.6 770.256,431.415 770.256,403.043C770.256,386.737 765.201,374.998 755.091,367.823C744.982,360.649 729.329,357.061 708.132,357.061L634.268,357.061L634.268,445.6ZM634.268,592.35L724.763,592.35C745.96,592.35 762.184,589.008 773.435,582.322C784.686,575.637 790.311,563 790.311,544.412C790.311,514.084 766.016,498.92 717.426,498.92L634.268,498.92L634.268,592.35Z"/>
        </g>
        <g transform="matrix(1,0,0,1,143.648,0)">
            <path d="M400.446,359.038L400.446,443.823L570.676,443.602L570.676,500L401.562,500L400.446,645.669L342.725,645.669L342.725,301.458L570.486,301.648L570.559,359.038L400.446,359.038Z" style="fill:white;"/>
        </g>
    </g>
</svg>
